<svg width="1200" height="390" viewBox="0 0 1200 390" xmlns="http://www.w3.org/2000/svg">
  <defs>
    <linearGradient id="bg" x1="0%" y1="0%" x2="100%" y2="100%">
      <stop offset="0%"   stop-color="#02040a"/>
      <stop offset="50%"  stop-color="#050d1c"/>
      <stop offset="100%" stop-color="#03060f"/>
    </linearGradient>
    <linearGradient id="nameG" x1="0%" y1="0%" x2="100%" y2="0%">
      <stop offset="0%"   stop-color="#ffffff"/>
      <stop offset="60%"  stop-color="#e0f4ff"/>
      <stop offset="100%" stop-color="#a0d8ef"/>
    </linearGradient>
    <linearGradient id="barG" x1="0%" y1="0%" x2="0%" y2="100%">
      <stop offset="0%"   stop-color="#00e5ff"/>
      <stop offset="100%" stop-color="#8b5cf6"/>
    </linearGradient>
    <linearGradient id="footG" x1="0%" y1="0%" x2="100%" y2="0%">
      <stop offset="0%"   stop-color="#00e5ff" stop-opacity="0"/>
      <stop offset="25%"  stop-color="#00e5ff"/>
      <stop offset="65%"  stop-color="#8b5cf6"/>
      <stop offset="100%" stop-color="#8b5cf6" stop-opacity="0"/>
    </linearGradient>
    <linearGradient id="panelBg" x1="0%" y1="0%" x2="100%" y2="100%">
      <stop offset="0%"   stop-color="#060e1e"/>
      <stop offset="100%" stop-color="#020810"/>
    </linearGradient>
    <filter id="glow">
      <feGaussianBlur stdDeviation="3" result="b"/>
      <feMerge><feMergeNode in="b"/><feMergeNode in="SourceGraphic"/></feMerge>
    </filter>
    <filter id="nameGlow">
      <feGaussianBlur stdDeviation="6" result="b"/>
      <feMerge><feMergeNode in="b"/><feMergeNode in="SourceGraphic"/></feMerge>
    </filter>
    <filter id="bloom"><feGaussianBlur stdDeviation="28"/></filter>
    <pattern id="grid" width="60" height="60" patternUnits="userSpaceOnUse">
      <path d="M60 0L0 0 0 60" fill="none" stroke="#0c1e38" stroke-width="0.55"/>
    </pattern>
    <pattern id="scan" width="1" height="4" patternUnits="userSpaceOnUse">
      <rect width="1" height="2" fill="#00e5ff" opacity="0.012"/>
    </pattern>
    <clipPath id="clip"><rect width="1200" height="390"/></clipPath>
  </defs>

  <g clip-path="url(#clip)">

    <!-- BG -->
    <rect width="1200" height="390" fill="url(#bg)"/>
    <rect width="1200" height="390" fill="url(#grid)" opacity="0.75"/>
    <rect width="1200" height="390" fill="url(#scan)"/>

    <!-- Bloom -->
    <circle cx="130" cy="195" r="200" fill="#00e5ff" filter="url(#bloom)" opacity="0.038"/>
    <circle cx="960" cy="195" r="240" fill="#0a3a5c" filter="url(#bloom)" opacity="0.07"/>

    <!-- Corner brackets -->
    <path d="M18 18L18 44M18 18L44 18"     stroke="#00e5ff" stroke-width="1.8" fill="none" opacity="0.55" filter="url(#glow)"/>
    <path d="M1182 18L1182 44M1182 18L1158 18" stroke="#00e5ff" stroke-width="1.8" fill="none" opacity="0.55" filter="url(#glow)"/>
    <path d="M18 372L18 348M18 372L44 372"     stroke="#8b5cf6" stroke-width="1.8" fill="none" opacity="0.55"/>
    <path d="M1182 372L1182 348M1182 372L1158 372" stroke="#8b5cf6" stroke-width="1.8" fill="none" opacity="0.55"/>

    <!-- Ambient dots -->
    <circle cx="46"  cy="40"  r="3"   fill="#00e5ff" opacity="0.6"/>
    <circle cx="70"  cy="58"  r="1.8" fill="#8b5cf6" opacity="0.5"/>
    <circle cx="628" cy="20"  r="2.5" fill="#00e5ff" opacity="0.3"/>
    <circle cx="660" cy="370" r="2"   fill="#00e5ff" opacity="0.25"/>

    <!-- Vertical divider between left and right panels -->
    <line x1="760" y1="40" x2="760" y2="350" stroke="#0c1e38" stroke-width="1" opacity="0.8"/>


    <!-- ══════════════════════════════════ -->
    <!--           LEFT SECTION            -->
    <!-- ══════════════════════════════════ -->

    <!-- Accent bar + label row — vertically centered at y=60 baseline area -->
    <rect x="48" y="46" width="4" height="58" rx="2" fill="url(#barG)" filter="url(#glow)"/>
    <text x="62" y="58" font-family="'Courier New',monospace" font-size="9" fill="#00e5ff" opacity="0.5" letter-spacing="2">// FULL-STACK DEVELOPER — SYSTEM ONLINE</text>

    <!-- Name — clear below label, with room above -->
    <text x="62" y="96"
          font-family="'Segoe UI','Helvetica Neue',Arial,sans-serif"
          font-weight="900" font-size="40"
          fill="url(#nameG)" filter="url(#nameGlow)" letter-spacing="0.5">Yeasin Howlader Emon</text>

    <!-- Role pill — 10px below name baseline -->
    <rect x="62" y="106" width="200" height="26" rx="13"
          fill="#00e5ff" fill-opacity="0.07" stroke="#00e5ff" stroke-width="0.9" stroke-opacity="0.5"/>
    <!-- lightning icon, vertically centered in pill (106+13=119 center) -->
    <polygon points="78,111 73,119 76,119 71,131 80,123 76,123" fill="#00e5ff" filter="url(#glow)"/>
    <text x="88" y="124" font-family="'Segoe UI',Arial,sans-serif" font-weight="600" font-size="12.5" fill="#00e5ff" letter-spacing="0.4">Full-Stack Developer</text>

    <!-- Divider line — 14px below pill bottom (106+26=132 → 146) -->
    <line x1="62" y1="146" x2="720" y2="146" stroke="#0c1e38" stroke-width="1"/>
    <line x1="62" y1="146" x2="220" y2="146" stroke="#00e5ff" stroke-width="1" opacity="0.3"/>

    <!-- ── Contact row — 12px below divider (146+12=158) ── -->
    <!-- Email -->
    <rect x="62" y="156" width="20" height="20" rx="4" fill="#00e5ff" fill-opacity="0.09" stroke="#00e5ff" stroke-width="0.8" stroke-opacity="0.4"/>
    <g transform="translate(64,158)">
      <rect width="16" height="12" rx="1.5" fill="none" stroke="#00e5ff" stroke-width="1.2"/>
      <path d="M1 2L8 6.5 15 2" fill="none" stroke="#00e5ff" stroke-width="1.2" stroke-linecap="round"/>
    </g>
    <text x="88" y="170" font-family="'Segoe UI',Arial,sans-serif" font-size="12" fill="#7ca8c8">emonibnsalim@gmail.com</text>

    <!-- Phone — horizontally after email, fixed gap -->
    <rect x="282" y="156" width="20" height="20" rx="4" fill="#00e5ff" fill-opacity="0.09" stroke="#00e5ff" stroke-width="0.8" stroke-opacity="0.4"/>
    <g transform="translate(284,158)">
      <path d="M2 2.5C2 1.7 2.7 1 3.5 1h2.6l1 3.2-1.8 1.1A9 9 0 009.7 12l1.1-1.8L14 11.2V14c0 .8-.7 1.5-1.5 1.5A12.5 12.5 0 011 3.5C1 2.7 1.7 2 2.5 2z" fill="none" stroke="#00e5ff" stroke-width="1.1" stroke-linecap="round" stroke-linejoin="round" transform="scale(0.96)"/>
    </g>
    <text x="310" y="170" font-family="'Segoe UI',Arial,sans-serif" font-size="12" fill="#7ca8c8">+8801903245299</text>

    <!-- Location row — 10px below contact row (156+20+10=186) -->
    <rect x="62" y="186" width="20" height="20" rx="4" fill="#8b5cf6" fill-opacity="0.1" stroke="#8b5cf6" stroke-width="0.8" stroke-opacity="0.4"/>
    <g transform="translate(64,186)">
      <path d="M8 1a5.5 5.5 0 00-5.5 5.5c0 4 5.5 10 5.5 10s5.5-6 5.5-10A5.5 5.5 0 008 1zm0 7.5a2 2 0 110-4 2 2 0 010 4z" fill="#a78bfa"/>
    </g>
    <text x="88" y="200" font-family="'Segoe UI',Arial,sans-serif" font-size="12" fill="#7ca8c8">Manda, Mugdha — Dhaka, Bangladesh</text>

    <!-- ── TECH PILLS ROW 1 — 14px below location (186+20+14=220) ── -->
    <g transform="translate(62,220)">
      <!-- Next.js -->
      <rect width="86" height="25" rx="12.5" fill="#080e1d" stroke="#d0eeff" stroke-width="0.6" stroke-opacity="0.3"/>
      <g transform="translate(8,4) scale(0.68)"><circle cx="7.5" cy="7.5" r="7.5" fill="#000"/><text x="7.5" y="11" font-family="Arial,sans-serif" font-weight="900" font-size="10" fill="white" text-anchor="middle">N</text></g>
      <text x="48" y="17" font-family="'Segoe UI',Arial,sans-serif" font-size="11" fill="#c8e6ff" text-anchor="middle">Next.js</text>

      <!-- React -->
      <rect x="92" width="74" height="25" rx="12.5" fill="#080e1d" stroke="#61dafb" stroke-width="0.6" stroke-opacity="0.5"/>
      <g transform="translate(100,4.5) scale(0.68)"><circle cx="7" cy="7" r="2.2" fill="#61dafb"/><ellipse cx="7" cy="7" rx="7" ry="2.8" fill="none" stroke="#61dafb" stroke-width="1.1"/><ellipse cx="7" cy="7" rx="7" ry="2.8" fill="none" stroke="#61dafb" stroke-width="1.1" transform="rotate(60,7,7)"/><ellipse cx="7" cy="7" rx="7" ry="2.8" fill="none" stroke="#61dafb" stroke-width="1.1" transform="rotate(120,7,7)"/></g>
      <text x="143" y="17" font-family="'Segoe UI',Arial,sans-serif" font-size="11" fill="#61dafb" text-anchor="middle">React</text>

      <!-- Node.js -->
      <rect x="172" width="82" height="25" rx="12.5" fill="#080e1d" stroke="#68a063" stroke-width="0.6" stroke-opacity="0.5"/>
      <g transform="translate(180,4) scale(0.70)"><polygon points="7,1 13,4.5 13,11.5 7,15 1,11.5 1,4.5" fill="none" stroke="#68a063" stroke-width="1.2"/><text x="7" y="10.5" font-family="Arial,sans-serif" font-weight="900" font-size="8" fill="#68a063" text-anchor="middle">N</text></g>
      <text x="225" y="17" font-family="'Segoe UI',Arial,sans-serif" font-size="11" fill="#68a063" text-anchor="middle">Node.js</text>

      <!-- TypeScript -->
      <rect x="260" width="96" height="25" rx="12.5" fill="#080e1d" stroke="#3178c6" stroke-width="0.6" stroke-opacity="0.5"/>
      <g transform="translate(268,5)"><rect width="13" height="13" rx="2" fill="#3178c6"/><text x="6.5" y="10" font-family="Arial,sans-serif" font-weight="900" font-size="8" fill="white" text-anchor="middle">TS</text></g>
      <text x="318" y="17" font-family="'Segoe UI',Arial,sans-serif" font-size="11" fill="#60a5fa" text-anchor="middle">TypeScript</text>

      <!-- PostgreSQL -->
      <rect x="362" width="100" height="25" rx="12.5" fill="#080e1d" stroke="#336791" stroke-width="0.6" stroke-opacity="0.5"/>
      <g transform="translate(370,3) scale(0.78)"><ellipse cx="7" cy="8" rx="5.5" ry="6" fill="#336791"/><ellipse cx="7" cy="7" rx="4" ry="4.5" fill="#4a9fd4"/><path d="M11.5 9 Q14 10 13.5 14 Q13 16 11 16" fill="none" stroke="#336791" stroke-width="1.5" stroke-linecap="round"/><ellipse cx="3.5" cy="6" rx="2.5" ry="3.5" fill="#336791"/></g>
      <text x="425" y="17" font-family="'Segoe UI',Arial,sans-serif" font-size="11" fill="#4a9fd4" text-anchor="middle">PostgreSQL</text>

      <!-- MongoDB -->
      <rect x="468" width="88" height="25" rx="12.5" fill="#080e1d" stroke="#47a248" stroke-width="0.6" stroke-opacity="0.5"/>
      <g transform="translate(476,3) scale(0.82)"><path d="M7 1C7 1 2 5.5 2 9.5C2 12.5 4.2 15 7 15.5C9.8 15 12 12.5 12 9.5C12 5.5 7 1 7 1Z" fill="#47a248"/><line x1="7" y1="15.5" x2="7" y2="12" stroke="#3d8b40" stroke-width="1.5" stroke-linecap="round"/></g>
      <text x="522" y="17" font-family="'Segoe UI',Arial,sans-serif" font-size="11" fill="#4ade80" text-anchor="middle">MongoDB</text>
    </g>

    <!-- ── TECH PILLS ROW 2 — 10px below row 1 (220+25+10=255) ── -->
    <g transform="translate(62,255)">
      <!-- Prisma -->
      <rect width="74" height="25" rx="12.5" fill="#080e1d" stroke="#818cf8" stroke-width="0.6" stroke-opacity="0.5"/>
      <g transform="translate(9,4) scale(0.76)"><polygon points="7,1 13.5,14 0.5,14" fill="none" stroke="#818cf8" stroke-width="1.3"/><line x1="7" y1="1" x2="7" y2="14" stroke="#818cf8" stroke-width="1" opacity="0.6"/></g>
      <text x="47" y="17" font-family="'Segoe UI',Arial,sans-serif" font-size="11" fill="#a5b4fc" text-anchor="middle">Prisma</text>

      <!-- Redux -->
      <rect x="80" width="72" height="25" rx="12.5" fill="#080e1d" stroke="#764abc" stroke-width="0.6" stroke-opacity="0.5"/>
      <g transform="translate(89,4.5) scale(0.70)"><ellipse cx="7" cy="7" rx="7" ry="2.8" fill="none" stroke="#764abc" stroke-width="1.1"/><ellipse cx="7" cy="7" rx="7" ry="2.8" fill="none" stroke="#764abc" stroke-width="1.1" transform="rotate(60,7,7)"/><ellipse cx="7" cy="7" rx="7" ry="2.8" fill="none" stroke="#764abc" stroke-width="1.1" transform="rotate(-60,7,7)"/><circle cx="7" cy="7" r="1.8" fill="#764abc"/></g>
      <text x="126" y="17" font-family="'Segoe UI',Arial,sans-serif" font-size="11" fill="#c084fc" text-anchor="middle">Redux</text>

      <!-- Docker -->
      <rect x="158" width="76" height="25" rx="12.5" fill="#080e1d" stroke="#2496ed" stroke-width="0.6" stroke-opacity="0.5"/>
      <g transform="translate(166,4) scale(0.78)"><rect x="1" y="5" width="5" height="3" rx="0.5" fill="#2496ed"/><rect x="7" y="3" width="5" height="5" rx="0.5" fill="#2496ed"/><rect x="1" y="2" width="5" height="2.5" rx="0.5" fill="#2496ed" opacity="0.7"/><path d="M0 9Q6 13 13 10Q15 9 14 7Q12 8 0 9Z" fill="#2496ed"/></g>
      <text x="205" y="17" font-family="'Segoe UI',Arial,sans-serif" font-size="11" fill="#60a5fa" text-anchor="middle">Docker</text>

      <!-- Tailwind -->
      <rect x="240" width="84" height="25" rx="12.5" fill="#080e1d" stroke="#06b6d4" stroke-width="0.6" stroke-opacity="0.5"/>
      <g transform="translate(248,5) scale(0.80)"><path d="M7 0C4.7 0 3.3 1.2 2.7 3.5 3.5 2.3 4.5 1.8 5.7 2.2 6.4 2.4 7 3 7.7 3.7 8.8 4.8 10.1 6 12.3 6 14.6 6 16 4.8 16.6 2.5 15.8 3.7 14.8 4.2 13.6 3.8 12.9 3.6 12.3 3 11.6 2.3 10.5 1.2 9.2 0 7 0ZM2.7 6C0.4 6-1 7.2-1.6 9.5-0.8 8.3 0.2 7.8 1.4 8.2 2.1 8.4 2.7 9 3.4 9.7 4.5 10.8 5.8 12 8 12 10.3 12 11.7 10.8 12.3 8.5 11.5 9.7 10.5 10.2 9.3 9.8 8.6 9.6 8 9 7.3 8.3 6.2 7.2 4.9 6 2.7 6Z" fill="#06b6d4"/></g>
      <text x="292" y="17" font-family="'Segoe UI',Arial,sans-serif" font-size="11" fill="#22d3ee" text-anchor="middle">Tailwind</text>

      <!-- Redis -->
      <rect x="330" width="64" height="25" rx="12.5" fill="#080e1d" stroke="#dc2626" stroke-width="0.6" stroke-opacity="0.5"/>
      <g transform="translate(338,5) scale(0.78)"><polygon points="6,0 12,4 6,8 0,4" fill="#dc2626"/><polygon points="6,5 10,7 6,9 2,7" fill="#ff6b6b" opacity="0.7"/></g>
      <text x="375" y="17" font-family="'Segoe UI',Arial,sans-serif" font-size="11" fill="#f87171" text-anchor="middle">Redis</text>

      <!-- Express -->
      <rect x="400" width="78" height="25" rx="12.5" fill="#080e1d" stroke="#94a3b8" stroke-width="0.6" stroke-opacity="0.3"/>
      <g transform="translate(408,5) scale(0.78)"><circle cx="7" cy="7" r="6" fill="none" stroke="#cbd5e1" stroke-width="1.3"/><path d="M3 7H10.5M3 5.5A4.5 4.5 0 0111 7" fill="none" stroke="#cbd5e1" stroke-width="1.3" stroke-linecap="round"/></g>
      <text x="451" y="17" font-family="'Segoe UI',Arial,sans-serif" font-size="11" fill="#cbd5e1" text-anchor="middle">Express</text>

      <!-- Sass -->
      <rect x="484" width="62" height="25" rx="12.5" fill="#080e1d" stroke="#cc6699" stroke-width="0.6" stroke-opacity="0.5"/>
      <g transform="translate(491,3)"><circle cx="7" cy="8" r="7.5" fill="#cc6699" opacity="0.15"/><text x="7" y="12.5" font-family="Georgia,serif" font-weight="900" font-style="italic" font-size="13" fill="#e879a0" text-anchor="middle">S</text></g>
      <text x="528" y="17" font-family="'Segoe UI',Arial,sans-serif" font-size="11" fill="#e879a0" text-anchor="middle">Sass</text>
    </g>

    <!-- ── Divider before social badges ── -->
    <line x1="62" y1="296" x2="720" y2="296" stroke="#0c1e38" stroke-width="1"/>
    <line x1="62" y1="296" x2="220" y2="296" stroke="#8b5cf6" stroke-width="1" opacity="0.3"/>

    <!-- ── SOCIAL BADGES — 12px below divider (296+12=308) ── -->
    <g transform="translate(62,308)">
      <!-- GitHub -->
      <rect width="100" height="28" rx="14" fill="#00e5ff" fill-opacity="0.07" stroke="#00e5ff" stroke-width="0.9" stroke-opacity="0.4"/>
      <g transform="translate(10,4) scale(0.83)"><path d="M12 2C6.477 2 2 6.484 2 12.017c0 4.425 2.865 8.18 6.839 9.504.5.092.682-.217.682-.483 0-.237-.008-.868-.013-1.703-2.782.605-3.369-1.343-3.369-1.343-.454-1.158-1.11-1.466-1.11-1.466-.908-.62.069-.608.069-.608 1.003.07 1.531 1.032 1.531 1.032.892 1.53 2.341 1.088 2.91.832.092-.647.35-1.088.636-1.338-2.22-.253-4.555-1.113-4.555-4.951 0-1.093.39-1.988 1.029-2.688-.103-.253-.446-1.272.098-2.65 0 0 .84-.27 2.75 1.026A9.564 9.564 0 0112 6.844c.85.004 1.705.115 2.504.337 1.909-1.296 2.747-1.027 2.747-1.027.546 1.379.202 2.398.1 2.651.64.7 1.028 1.595 1.028 2.688 0 3.848-2.339 4.695-4.566 4.943.359.309.678.92.678 1.855 0 1.338-.012 2.419-.012 2.747 0 .268.18.58.688.482A10.019 10.019 0 0022 12.017C22 6.484 17.522 2 12 2z" fill="#00e5ff"/></g>
      <text x="32" y="19" font-family="'Segoe UI',Arial,sans-serif" font-size="12" font-weight="500" fill="#7ee8ff" text-anchor="start">GitHub</text>

      <!-- LinkedIn -->
      <rect x="108" width="104" height="28" rx="14" fill="#0a66c2" fill-opacity="0.12" stroke="#0a66c2" stroke-width="0.9" stroke-opacity="0.5"/>
      <g transform="translate(118,5) scale(0.76)"><path d="M19 3a2 2 0 012 2v14a2 2 0 01-2 2H5a2 2 0 01-2-2V5a2 2 0 012-2h14m-.5 15.5v-5.3a3.26 3.26 0 00-3.26-3.26c-.85 0-1.84.52-2.32 1.3v-1.11H9.73v8.37h2.79v-4.93c0-.77.62-1.4 1.39-1.4a1.4 1.4 0 011.4 1.4v4.93h2.79M6.88 8.56a1.68 1.68 0 001.68-1.68c0-.93-.75-1.69-1.68-1.69a1.69 1.69 0 00-1.69 1.69c0 .93.76 1.68 1.69 1.68m1.39 9.94v-8.37H5.5v8.37h2.77z" fill="#60a5fa"/></g>
      <text x="140" y="19" font-family="'Segoe UI',Arial,sans-serif" font-size="12" font-weight="500" fill="#60a5fa" text-anchor="start">LinkedIn</text>

      <!-- Portfolio -->
      <rect x="220" width="104" height="28" rx="14" fill="#8b5cf6" fill-opacity="0.12" stroke="#8b5cf6" stroke-width="0.9" stroke-opacity="0.5"/>
      <g transform="translate(230,5) scale(0.76)"><circle cx="12" cy="12" r="10" fill="none" stroke="#a78bfa" stroke-width="1.6"/><path d="M12 2C9.5 5.5 8.5 8.5 8.5 12s1 6.5 3.5 10M12 2c2.5 3.5 3.5 6.5 3.5 10s-1 6.5-3.5 10" fill="none" stroke="#a78bfa" stroke-width="1.3"/><line x1="2" y1="12" x2="22" y2="12" stroke="#a78bfa" stroke-width="1.3"/><path d="M3 7.5h18M3 16.5h18" stroke="#a78bfa" stroke-width="0.9" opacity="0.65"/></g>
      <text x="252" y="19" font-family="'Segoe UI',Arial,sans-serif" font-size="12" font-weight="500" fill="#a78bfa" text-anchor="start">Portfolio</text>

      <!-- Gmail -->
      <rect x="332" width="84" height="28" rx="14" fill="#ea4335" fill-opacity="0.1" stroke="#ea4335" stroke-width="0.9" stroke-opacity="0.45"/>
      <g transform="translate(342,8)"><rect width="16" height="12" rx="1.5" fill="none" stroke="#f87171" stroke-width="1.2"/><path d="M1 2L8 7.5 15 2" fill="none" stroke="#f87171" stroke-width="1.2" stroke-linecap="round"/></g>
      <text x="363" y="19" font-family="'Segoe UI',Arial,sans-serif" font-size="12" font-weight="500" fill="#f87171" text-anchor="start">Gmail</text>
    </g>


    <!-- ═══════════════════════════════════════════════════ -->
    <!--   RIGHT — CODE EDITOR (top) + GIT TERMINAL (bottom)  -->
    <!-- ═══════════════════════════════════════════════════ -->

    <!-- ── TOP: CODE EDITOR ── -->
    <rect x="778" y="36" width="396" height="172" rx="10"
          fill="url(#panelBg)" stroke="#00e5ff" stroke-width="1.2" stroke-opacity="0.45"/>
    <!-- title bar -->
    <rect x="778" y="36" width="396" height="22" rx="10" fill="#030c1a"/>
    <rect x="778" y="47" width="396" height="11" fill="#030c1a"/>
    <!-- traffic lights -->
    <circle cx="796" cy="47" r="4" fill="#ff5f57"/>
    <circle cx="810" cy="47" r="4" fill="#febc2e"/>
    <circle cx="824" cy="47" r="4" fill="#28c840"/>
    <!-- tab -->
    <rect x="848" y="39" width="110" height="14" rx="3.5" fill="#06102a"/>
    <circle cx="857" cy="46" r="2.5" fill="#00e5ff" opacity="0.6"/>
    <text x="910" y="50.5" font-family="'Courier New',monospace" font-size="9" fill="#2d4a6a" text-anchor="middle">emon.config.ts</text>

    <!-- line numbers -->
    <g font-family="'Courier New',monospace" font-size="8.5" fill="#1e3a55" text-anchor="end">
      <text x="798" y="76"> 1</text>
      <text x="798" y="89"> 2</text>
      <text x="798" y="102"> 3</text>
      <text x="798" y="115"> 4</text>
      <text x="798" y="128"> 5</text>
      <text x="798" y="141"> 6</text>
      <text x="798" y="154"> 7</text>
      <text x="798" y="167"> 8</text>
      <text x="798" y="180"> 9</text>
      <text x="798" y="193">10</text>
    </g>
    <!-- line number separator -->
    <line x1="803" y1="60" x2="803" y2="205" stroke="#0d2540" stroke-width="1"/>

    <!-- code syntax -->
    <g font-family="'Courier New',monospace" font-size="9">
      <text x="812" y="76"  fill="#334d66">// Developer profile</text>
      <text x="812" y="89"><tspan fill="#818cf8">export const</tspan><tspan fill="#7dd3fc"> emon </tspan><tspan fill="#64748b">= {</tspan></text>
      <text x="812" y="102"><tspan fill="#64748b">  name:  </tspan><tspan fill="#34d399">"Yeasin Emon"</tspan><tspan fill="#64748b">,</tspan></text>
      <text x="812" y="115"><tspan fill="#64748b">  role:  </tspan><tspan fill="#34d399">"Full-Stack Dev"</tspan><tspan fill="#64748b">,</tspan></text>
      <text x="812" y="128"><tspan fill="#64748b">  stack: </tspan><tspan fill="#7dd3fc">[</tspan><tspan fill="#fb923c">"Next","Node","TS"</tspan><tspan fill="#7dd3fc">]</tspan><tspan fill="#64748b">,</tspan></text>
      <text x="812" y="141"><tspan fill="#64748b">  db:    </tspan><tspan fill="#7dd3fc">[</tspan><tspan fill="#fb923c">"PG","Mongo","Redis"</tspan><tspan fill="#7dd3fc">]</tspan><tspan fill="#64748b">,</tspan></text>
      <text x="812" y="154"><tspan fill="#64748b">  tools: </tspan><tspan fill="#7dd3fc">[</tspan><tspan fill="#fb923c">"Docker","Vercel"</tspan><tspan fill="#7dd3fc">]</tspan><tspan fill="#64748b">,</tspan></text>
      <text x="812" y="167"><tspan fill="#64748b">  exp:   </tspan><tspan fill="#fb923c">2</tspan><tspan fill="#64748b">, open: </tspan><tspan fill="#a78bfa">true</tspan></text>
      <text x="812" y="180"><tspan fill="#64748b">  loc:   </tspan><tspan fill="#34d399">"Dhaka, BD"</tspan></text>
      <text x="812" y="193" fill="#7dd3fc">}</text>
    </g>
    <!-- blinking cursor -->
    <rect x="825" y="184" width="6" height="11" rx="1" fill="#00e5ff" opacity="0.9" filter="url(#glow)"/>


    <!-- ── BOTTOM: GIT TERMINAL ── -->
    <rect x="778" y="220" width="396" height="148" rx="10"
          fill="url(#panelBg)" stroke="#8b5cf6" stroke-width="1.1" stroke-opacity="0.4"/>
    <!-- title bar -->
    <rect x="778" y="220" width="396" height="20" rx="10" fill="#06042a"/>
    <rect x="778" y="230" width="396" height="10" fill="#06042a"/>
    <!-- terminal icon -->
    <g transform="translate(792,224) scale(0.75)">
      <path d="M2 8 L7 5 L2 2" fill="none" stroke="#8b5cf6" stroke-width="1.6" stroke-linecap="round" stroke-linejoin="round"/>
      <line x1="9" y1="8" x2="14" y2="8" stroke="#8b5cf6" stroke-width="1.6" stroke-linecap="round"/>
    </g>
    <text x="808" y="233" font-family="'Courier New',monospace" font-size="9" fill="#6d4aaa" letter-spacing="1">TERMINAL — git log --oneline</text>
    <!-- live dot -->
    <circle cx="1162" cy="230" r="3.5" fill="#34d399" filter="url(#glow)"/>

    <!-- git log entries — consistent 13px line height -->
    <g font-family="'Courier New',monospace" font-size="9">
      <text x="790" y="252"><tspan fill="#34d399">➜</tspan><tspan fill="#00e5ff"> ~/projects</tspan><tspan fill="#7ca8c8"> $ git log --oneline</tspan></text>
      <text x="790" y="267"><tspan fill="#fb923c">a3f9d1c</tspan><tspan fill="#64748b"> feat: </tspan><tspan fill="#e2e8f0">add auth flow &amp; protected routes</tspan></text>
      <text x="790" y="281"><tspan fill="#fb923c">c72b8ae</tspan><tspan fill="#64748b"> feat: </tspan><tspan fill="#e2e8f0">integrate PostgreSQL + Prisma ORM</tspan></text>
      <text x="790" y="295"><tspan fill="#a78bfa">4d1e7f2</tspan><tspan fill="#64748b"> fix:  </tspan><tspan fill="#e2e8f0">resolve Redis session expiry bug</tspan></text>
      <text x="790" y="309"><tspan fill="#a78bfa">e8c3a91</tspan><tspan fill="#64748b"> feat: </tspan><tspan fill="#e2e8f0">deploy LMS to production on Vercel</tspan></text>
      <text x="790" y="323"><tspan fill="#34d399">91fa34b</tspan><tspan fill="#64748b"> chore: </tspan><tspan fill="#e2e8f0">setup Docker &amp; Nginx config</tspan></text>
      <text x="790" y="337"><tspan fill="#34d399">b5d02c7</tspan><tspan fill="#64748b"> refact:</tspan><tspan fill="#e2e8f0"> modular folder architecture</tspan></text>
      <text x="790" y="354"><tspan fill="#34d399">➜</tspan><tspan fill="#00e5ff"> ~/projects</tspan><tspan fill="#7ca8c8"> $ </tspan></text>
    </g>
    <!-- cursor on last line -->
    <rect x="836" y="345" width="6" height="11" rx="1" fill="#8b5cf6" opacity="0.9" filter="url(#glow)"/>

    <!-- Footer bar -->
    <rect x="0" y="386" width="1200" height="4" fill="url(#footG)" opacity="0.85"/>

  </g>
</svg>
